<svg xmlns="http://www.w3.org/2000/svg" xmlns:xlink="http://www.w3.org/1999/xlink" width="300" zoomAndPan="magnify" viewBox="0 0 224.87999 74.999997" height="100" preserveAspectRatio="xMidYMid meet" version="1.0"><defs><g/><clipPath id="dd5d5bf079"><path d="M 21 0.0195312 L 207 0.0195312 L 207 73 L 21 73 Z M 21 0.0195312 " clip-rule="nonzero"/></clipPath><clipPath id="02ab9aecf4"><path d="M 0.589844 0.738281 L 176 0.738281 L 176 72.703125 L 0.589844 72.703125 Z M 0.589844 0.738281 " clip-rule="nonzero"/></clipPath><clipPath id="88cf27458e"><rect x="0" width="176" y="0" height="73"/></clipPath><clipPath id="1a7a7f0d38"><path d="M 172.226562 42.636719 L 185.621094 42.636719 L 185.621094 56.03125 L 172.226562 56.03125 Z M 172.226562 42.636719 " clip-rule="nonzero"/></clipPath><clipPath id="223042ab87"><path d="M 178.925781 42.636719 C 175.226562 42.636719 172.226562 45.636719 172.226562 49.335938 C 172.226562 53.035156 175.226562 56.03125 178.925781 56.03125 C 182.625 56.03125 185.621094 53.035156 185.621094 49.335938 C 185.621094 45.636719 182.625 42.636719 178.925781 42.636719 Z M 178.925781 42.636719 " clip-rule="nonzero"/></clipPath><clipPath id="962b75bf85"><path d="M 0.226562 0.636719 L 13.621094 0.636719 L 13.621094 14.03125 L 0.226562 14.03125 Z M 0.226562 0.636719 " clip-rule="nonzero"/></clipPath><clipPath id="c86a32ffec"><path d="M 6.925781 0.636719 C 3.226562 0.636719 0.226562 3.636719 0.226562 7.335938 C 0.226562 11.035156 3.226562 14.03125 6.925781 14.03125 C 10.625 14.03125 13.621094 11.035156 13.621094 7.335938 C 13.621094 3.636719 10.625 0.636719 6.925781 0.636719 Z M 6.925781 0.636719 " clip-rule="nonzero"/></clipPath><clipPath id="707ed62919"><rect x="0" width="14" y="0" height="15"/></clipPath><clipPath id="ff54ada923"><rect x="0" width="186" y="0" height="73"/></clipPath></defs><g clip-path="url(#dd5d5bf079)"><g transform="matrix(1, 0, 0, 1, 21, -0.000000000000000888)"><g clip-path="url(#ff54ada923)"><g clip-path="url(#02ab9aecf4)"><g transform="matrix(1, 0, 0, 1, 0.000000000000003553, -0.000000000000000888)"><g clip-path="url(#88cf27458e)"><g fill="#1b1b1b" fill-opacity="1"><g transform="translate(2.006885, 56.92357)"><g><path d="M 45.15625 -32.015625 C 43.039062 -31.734375 41.441406 -31.070312 40.359375 -30.03125 C 39.273438 -29 38.53125 -27.71875 38.125 -26.1875 C 37.726562 -24.65625 37.53125 -23.039062 37.53125 -21.34375 C 37.53125 -19.644531 37.550781 -17.972656 37.59375 -16.328125 C 37.59375 -15.992188 37.628906 -15.25 37.703125 -14.09375 C 37.773438 -12.945312 37.832031 -11.628906 37.875 -10.140625 C 37.925781 -8.660156 37.914062 -7.203125 37.84375 -5.765625 C 37.769531 -4.328125 37.601562 -3.125 37.34375 -2.15625 C 37.09375 -1.1875 36.707031 -0.65625 36.1875 -0.5625 C 35.332031 -0.46875 34.375 -0.335938 33.3125 -0.171875 C 32.257812 -0.00390625 31.238281 0.0390625 30.25 -0.03125 C 29.257812 -0.101562 28.429688 -0.398438 27.765625 -0.921875 C 27.109375 -1.441406 26.78125 -2.3125 26.78125 -3.53125 C 26.738281 -7.019531 26.71875 -10.519531 26.71875 -14.03125 C 26.71875 -17.539062 26.578125 -21.015625 26.296875 -24.453125 C 26.148438 -26.378906 25.617188 -28.082031 24.703125 -29.5625 C 23.785156 -31.050781 22.21875 -31.890625 20 -32.078125 C 19.851562 -32.128906 19.664062 -32.15625 19.4375 -32.15625 C 17.457031 -32.15625 15.863281 -31.679688 14.65625 -30.734375 C 13.457031 -29.796875 12.5625 -28.570312 11.96875 -27.0625 C 11.382812 -25.5625 11 -23.972656 10.8125 -22.296875 C 10.625 -20.617188 10.550781 -19.03125 10.59375 -17.53125 C 10.644531 -15.457031 10.679688 -13.367188 10.703125 -11.265625 C 10.722656 -9.171875 10.734375 -7.085938 10.734375 -5.015625 C 10.785156 -3.367188 10.625 -2.226562 10.25 -1.59375 C 9.875 -0.957031 9.238281 -0.578125 8.34375 -0.453125 C 7.445312 -0.335938 6.222656 -0.210938 4.671875 -0.078125 C 2.878906 0.0664062 1.675781 -0.328125 1.0625 -1.265625 C 0.445312 -2.210938 0.140625 -3.507812 0.140625 -5.15625 C 0.140625 -8.5 0.140625 -11.867188 0.140625 -15.265625 C 0.140625 -18.660156 0.140625 -22.050781 0.140625 -25.4375 C 0.140625 -27.132812 0.140625 -28.816406 0.140625 -30.484375 C 0.140625 -32.160156 0.140625 -33.847656 0.140625 -35.546875 C 0.140625 -36.203125 0.101562 -37 0.03125 -37.9375 C -0.0390625 -38.882812 0.160156 -39.597656 0.640625 -40.078125 C 0.828125 -40.304688 1.273438 -40.421875 1.984375 -40.421875 C 2.117188 -40.421875 2.28125 -40.421875 2.46875 -40.421875 C 2.65625 -40.421875 2.84375 -40.398438 3.03125 -40.359375 C 3.695312 -40.265625 4.332031 -40.15625 4.9375 -40.03125 C 5.550781 -39.914062 6.164062 -39.8125 6.78125 -39.71875 C 7.769531 -39.53125 8.769531 -39.351562 9.78125 -39.1875 C 10.800781 -39.019531 11.828125 -38.867188 12.859375 -38.734375 C 12.953125 -38.734375 13.035156 -38.734375 13.109375 -38.734375 C 13.179688 -38.734375 13.238281 -38.734375 13.28125 -38.734375 C 13.757812 -38.734375 14.1875 -38.800781 14.5625 -38.9375 C 14.9375 -39.082031 15.289062 -39.203125 15.625 -39.296875 C 15.71875 -39.390625 15.820312 -39.445312 15.9375 -39.46875 C 16.050781 -39.488281 16.132812 -39.523438 16.1875 -39.578125 C 17.5 -40.003906 18.695312 -40.332031 19.78125 -40.5625 C 20.863281 -40.800781 21.878906 -40.921875 22.828125 -40.921875 C 25.703125 -40.921875 28.148438 -39.8125 30.171875 -37.59375 C 31.492188 -36.28125 32.863281 -35.625 34.28125 -35.625 C 35.125 -35.625 35.882812 -35.8125 36.5625 -36.1875 C 37.25 -36.5625 37.878906 -36.960938 38.453125 -37.390625 C 38.585938 -37.484375 38.710938 -37.578125 38.828125 -37.671875 C 38.953125 -37.765625 39.0625 -37.832031 39.15625 -37.875 C 42.21875 -39.945312 45.46875 -40.984375 48.90625 -40.984375 C 51.257812 -40.984375 53.492188 -40.488281 55.609375 -39.5 C 57.734375 -38.507812 59.570312 -37.050781 61.125 -35.125 C 62.164062 -33.851562 62.910156 -32.40625 63.359375 -30.78125 C 63.804688 -29.15625 64.085938 -27.429688 64.203125 -25.609375 C 64.316406 -23.796875 64.363281 -21.992188 64.34375 -20.203125 C 64.320312 -18.421875 64.378906 -16.75 64.515625 -15.1875 C 64.710938 -13.113281 64.90625 -10.96875 65.09375 -8.75 C 65.28125 -6.539062 64.972656 -4.425781 64.171875 -2.40625 C 63.835938 -1.601562 63.34375 -1.082031 62.6875 -0.84375 C 62.03125 -0.613281 61.300781 -0.53125 60.5 -0.59375 C 59.695312 -0.664062 58.867188 -0.679688 58.015625 -0.640625 C 56.835938 -0.640625 55.976562 -0.695312 55.4375 -0.8125 C 54.894531 -0.925781 54.539062 -1.253906 54.375 -1.796875 C 54.21875 -2.335938 54.09375 -3.222656 54 -4.453125 C 53.800781 -7.941406 53.726562 -11.453125 53.78125 -14.984375 C 53.832031 -18.515625 53.664062 -21.976562 53.28125 -25.375 C 53.050781 -27.488281 52.332031 -29.144531 51.125 -30.34375 C 49.925781 -31.550781 48.382812 -32.15625 46.5 -32.15625 C 46.3125 -32.15625 46.097656 -32.140625 45.859375 -32.109375 C 45.628906 -32.085938 45.394531 -32.054688 45.15625 -32.015625 Z M 45.15625 -32.015625 "/></g></g></g><g fill="#1b1b1b" fill-opacity="1"><g transform="translate(67.301947, 56.92357)"><g><path d="M 0.078125 -20.5 C 0.0234375 -23.132812 0.539062 -25.757812 1.625 -28.375 C 2.707031 -30.988281 4.21875 -33.285156 6.15625 -35.265625 C 7.988281 -37.148438 10.082031 -38.585938 12.4375 -39.578125 C 14.789062 -40.566406 17.21875 -41.0625 19.71875 -41.0625 C 19.957031 -41.0625 20.203125 -41.0625 20.453125 -41.0625 C 20.710938 -41.0625 20.960938 -41.0625 21.203125 -41.0625 C 21.203125 -41.0625 21.210938 -41.0625 21.234375 -41.0625 C 21.253906 -41.0625 21.265625 -41.0625 21.265625 -41.0625 C 25.367188 -41.0625 28.984375 -40.210938 32.109375 -38.515625 C 35.242188 -36.816406 37.707031 -34.457031 39.5 -31.4375 C 41.289062 -28.425781 42.1875 -24.941406 42.1875 -20.984375 C 42.1875 -14.816406 40.253906 -9.800781 36.390625 -5.9375 C 34.503906 -4.050781 32.253906 -2.601562 29.640625 -1.59375 C 27.023438 -0.582031 24.1875 -0.078125 21.125 -0.078125 C 18.207031 -0.078125 15.488281 -0.601562 12.96875 -1.65625 C 10.445312 -2.71875 8.234375 -4.175781 6.328125 -6.03125 C 4.421875 -7.894531 2.910156 -10.0625 1.796875 -12.53125 C 0.691406 -15.007812 0.117188 -17.664062 0.078125 -20.5 Z M 20.921875 -32.65625 C 19.273438 -32.65625 17.671875 -32.125 16.109375 -31.0625 C 14.554688 -30 13.269531 -28.628906 12.25 -26.953125 C 11.238281 -25.285156 10.710938 -23.535156 10.671875 -21.703125 C 10.617188 -19.671875 10.945312 -17.710938 11.65625 -15.828125 C 12.363281 -13.941406 13.445312 -12.363281 14.90625 -11.09375 C 16.375 -9.820312 18.191406 -9.066406 20.359375 -8.828125 C 22.753906 -8.597656 24.773438 -8.976562 26.421875 -9.96875 C 28.078125 -10.957031 29.351562 -12.3125 30.25 -14.03125 C 31.144531 -15.75 31.640625 -17.628906 31.734375 -19.671875 C 31.828125 -21.722656 31.519531 -23.691406 30.8125 -25.578125 C 30.101562 -27.460938 28.972656 -29.050781 27.421875 -30.34375 C 25.867188 -31.644531 23.890625 -32.414062 21.484375 -32.65625 C 21.390625 -32.65625 21.296875 -32.65625 21.203125 -32.65625 C 21.109375 -32.65625 21.015625 -32.65625 20.921875 -32.65625 Z M 20.921875 -32.65625 "/></g></g></g><g fill="#1b1b1b" fill-opacity="1"><g transform="translate(109.630322, 56.92357)"><g><path d="M 10.53125 -0.984375 C 10.195312 -0.566406 9.722656 -0.332031 9.109375 -0.28125 C 8.503906 -0.238281 7.867188 -0.171875 7.203125 -0.078125 C 6.597656 -0.0234375 5.878906 0.0195312 5.046875 0.0625 C 4.222656 0.113281 3.445312 0.0351562 2.71875 -0.171875 C 1.988281 -0.390625 1.4375 -0.828125 1.0625 -1.484375 C 0.5 -2.515625 0.164062 -3.65625 0.0625 -4.90625 C -0.03125 -6.15625 -0.00390625 -7.425781 0.140625 -8.71875 C 0.285156 -10.019531 0.359375 -11.238281 0.359375 -12.375 C 0.398438 -14.582031 0.429688 -16.78125 0.453125 -18.96875 C 0.484375 -21.164062 0.519531 -23.367188 0.5625 -25.578125 C 0.613281 -29.960938 0.625 -34.359375 0.59375 -38.765625 C 0.570312 -43.171875 0.515625 -47.5625 0.421875 -51.9375 C 0.421875 -53.164062 0.679688 -54.050781 1.203125 -54.59375 C 1.722656 -55.132812 2.40625 -55.453125 3.25 -55.546875 C 4.09375 -55.640625 5.007812 -55.613281 6 -55.46875 C 6.988281 -55.332031 7.929688 -55.21875 8.828125 -55.125 C 9.816406 -55.03125 10.460938 -54.5 10.765625 -53.53125 C 11.078125 -52.5625 11.222656 -51.523438 11.203125 -50.421875 C 11.179688 -49.316406 11.144531 -48.4375 11.09375 -47.78125 C 11 -45.601562 10.941406 -43.40625 10.921875 -41.1875 C 10.898438 -38.976562 10.890625 -36.769531 10.890625 -34.5625 C 10.890625 -29.1875 10.890625 -23.8125 10.890625 -18.4375 C 10.890625 -13.070312 10.890625 -7.703125 10.890625 -2.328125 C 10.890625 -1.765625 10.769531 -1.316406 10.53125 -0.984375 Z M 10.53125 -0.984375 "/></g></g></g><g fill="#1b1b1b" fill-opacity="1"><g transform="translate(121.006672, 56.92357)"><g><path d="M 10.53125 -0.984375 C 10.195312 -0.566406 9.722656 -0.332031 9.109375 -0.28125 C 8.503906 -0.238281 7.867188 -0.171875 7.203125 -0.078125 C 6.597656 -0.0234375 5.878906 0.0195312 5.046875 0.0625 C 4.222656 0.113281 3.445312 0.0351562 2.71875 -0.171875 C 1.988281 -0.390625 1.4375 -0.828125 1.0625 -1.484375 C 0.5 -2.515625 0.164062 -3.65625 0.0625 -4.90625 C -0.03125 -6.15625 -0.00390625 -7.425781 0.140625 -8.71875 C 0.285156 -10.019531 0.359375 -11.238281 0.359375 -12.375 C 0.398438 -14.582031 0.429688 -16.78125 0.453125 -18.96875 C 0.484375 -21.164062 0.519531 -23.367188 0.5625 -25.578125 C 0.613281 -29.960938 0.625 -34.359375 0.59375 -38.765625 C 0.570312 -43.171875 0.515625 -47.5625 0.421875 -51.9375 C 0.421875 -53.164062 0.679688 -54.050781 1.203125 -54.59375 C 1.722656 -55.132812 2.40625 -55.453125 3.25 -55.546875 C 4.09375 -55.640625 5.007812 -55.613281 6 -55.46875 C 6.988281 -55.332031 7.929688 -55.21875 8.828125 -55.125 C 9.816406 -55.03125 10.460938 -54.5 10.765625 -53.53125 C 11.078125 -52.5625 11.222656 -51.523438 11.203125 -50.421875 C 11.179688 -49.316406 11.144531 -48.4375 11.09375 -47.78125 C 11 -45.601562 10.941406 -43.40625 10.921875 -41.1875 C 10.898438 -38.976562 10.890625 -36.769531 10.890625 -34.5625 C 10.890625 -29.1875 10.890625 -23.8125 10.890625 -18.4375 C 10.890625 -13.070312 10.890625 -7.703125 10.890625 -2.328125 C 10.890625 -1.765625 10.769531 -1.316406 10.53125 -0.984375 Z M 10.53125 -0.984375 "/></g></g></g><g fill="#1b1b1b" fill-opacity="1"><g transform="translate(132.383022, 56.92357)"><g><path d="M 10.734375 15.046875 C 9.554688 15.046875 8.378906 14.914062 7.203125 14.65625 C 6.023438 14.40625 4.894531 14.019531 3.8125 13.5 C 2.726562 12.976562 1.914062 12.304688 1.375 11.484375 C 0.832031 10.660156 0.894531 9.660156 1.5625 8.484375 C 2.164062 7.398438 2.710938 6.515625 3.203125 5.828125 C 3.703125 5.148438 4.289062 4.710938 4.96875 4.515625 C 5.65625 4.328125 6.59375 4.492188 7.78125 5.015625 C 8.71875 5.390625 9.679688 5.445312 10.671875 5.1875 C 11.660156 4.9375 12.460938 4.429688 13.078125 3.671875 C 13.828125 2.828125 14.164062 2.003906 14.09375 1.203125 C 14.03125 0.398438 14 -0.492188 14 -1.484375 C 14 -2.617188 13.703125 -3.804688 13.109375 -5.046875 C 12.515625 -6.296875 12.03125 -7.441406 11.65625 -8.484375 C 11.1875 -9.796875 10.691406 -11.113281 10.171875 -12.4375 C 9.660156 -13.757812 9.144531 -15.078125 8.625 -16.390625 C 7.582031 -19.128906 6.554688 -21.851562 5.546875 -24.5625 C 4.535156 -27.269531 3.507812 -29.988281 2.46875 -32.71875 C 2.144531 -33.707031 1.710938 -34.671875 1.171875 -35.609375 C 0.628906 -36.554688 0.265625 -37.550781 0.078125 -38.59375 C -0.117188 -39.582031 0.109375 -40.226562 0.765625 -40.53125 C 1.429688 -40.832031 2.25 -40.972656 3.21875 -40.953125 C 4.1875 -40.929688 5 -40.921875 5.65625 -40.921875 C 6.269531 -40.921875 6.878906 -40.882812 7.484375 -40.8125 C 8.097656 -40.738281 8.691406 -40.5625 9.265625 -40.28125 C 10.242188 -39.8125 11.050781 -38.90625 11.6875 -37.5625 C 12.332031 -36.21875 12.878906 -34.789062 13.328125 -33.28125 C 13.773438 -31.78125 14.160156 -30.535156 14.484375 -29.546875 C 15.148438 -27.941406 15.8125 -26.328125 16.46875 -24.703125 C 17.125 -23.078125 17.925781 -21.507812 18.875 -20 C 19.675781 -18.726562 20.472656 -18.242188 21.265625 -18.546875 C 22.066406 -18.859375 22.707031 -19.601562 23.1875 -20.78125 C 24.363281 -23.695312 25.523438 -26.613281 26.671875 -29.53125 C 27.828125 -32.457031 28.992188 -35.359375 30.171875 -38.234375 C 30.265625 -38.609375 30.394531 -38.945312 30.5625 -39.25 C 30.726562 -39.5625 30.953125 -39.835938 31.234375 -40.078125 C 31.609375 -40.304688 31.992188 -40.457031 32.390625 -40.53125 C 32.796875 -40.601562 33.210938 -40.640625 33.640625 -40.640625 C 34.628906 -40.679688 35.601562 -40.710938 36.5625 -40.734375 C 37.53125 -40.765625 38.488281 -40.753906 39.4375 -40.703125 C 39.71875 -40.703125 39.988281 -40.691406 40.25 -40.671875 C 40.507812 -40.648438 40.734375 -40.546875 40.921875 -40.359375 C 41.296875 -40.066406 41.445312 -39.660156 41.375 -39.140625 C 41.300781 -38.628906 41.171875 -38.160156 40.984375 -37.734375 C 38.398438 -31.234375 35.785156 -24.742188 33.140625 -18.265625 C 30.503906 -11.785156 27.9375 -5.296875 25.4375 1.203125 C 24.875 2.710938 24.304688 4.253906 23.734375 5.828125 C 23.171875 7.410156 22.394531 8.835938 21.40625 10.109375 C 20.132812 11.710938 18.554688 12.925781 16.671875 13.75 C 14.796875 14.570312 12.816406 15.003906 10.734375 15.046875 Z M 10.734375 15.046875 "/></g></g></g></g></g></g><g clip-path="url(#1a7a7f0d38)"><g clip-path="url(#223042ab87)"><g transform="matrix(1, 0, 0, 1, 172, 42)"><g clip-path="url(#707ed62919)"><g clip-path="url(#962b75bf85)"><g clip-path="url(#c86a32ffec)"><path fill="#1b1b1b" d="M 0.226562 0.636719 L 13.621094 0.636719 L 13.621094 14.03125 L 0.226562 14.03125 Z M 0.226562 0.636719 " fill-opacity="1" fill-rule="nonzero"/></g></g></g></g></g></g></g></g></g></svg>